<svg width="284" height="68" viewBox="0 0 284 68" fill="none" xmlns="http://www.w3.org/2000/svg">
<path d="M15.744 58.44H19.456C22.4 58.44 25.1733 58.2053 27.776 57.736C30.3787 57.2667 32.2987 56.6053 33.536 55.752L33.984 52.232C34.0267 52.0613 34.1547 51.9333 34.368 51.848C34.624 51.7627 34.9013 51.72 35.2 51.72C35.84 51.72 36.1387 51.8907 36.096 52.232C35.8827 53.8107 35.7333 55.496 35.648 57.288C35.5627 59.08 35.52 60.7867 35.52 62.408C35.52 62.7067 35.2 62.856 34.56 62.856C34.304 62.856 34.0693 62.8133 33.856 62.728C33.6427 62.6853 33.536 62.5787 33.536 62.408V61H12.736C10.944 61 9.51467 61 8.448 61C7.38133 61.0427 6.50667 61.064 5.824 61.064C5.14133 61.1067 4.45867 61.128 3.776 61.128C3.60533 61.128 3.47733 61.0213 3.392 60.808C3.30667 60.5947 3.264 60.36 3.264 60.104C3.264 59.8053 3.30667 59.5493 3.392 59.336C3.47733 59.08 3.60533 58.952 3.776 58.952H6.528C7.63733 58.952 8.34133 58.7387 8.64 58.312C8.98133 57.8853 9.152 57.1173 9.152 56.008V25.672C9.152 24.008 9.06667 22.792 8.896 22.024C8.768 21.2133 8.59733 20.68 8.384 20.424C8.21333 20.168 8.02133 20.04 7.808 20.04H4.096C3.75467 20.04 3.584 19.6347 3.584 18.824C3.584 18.6107 3.60533 18.4187 3.648 18.248C3.73333 18.0347 3.88267 17.928 4.096 17.928C5.46133 17.928 6.82667 17.9493 8.192 17.992C9.55733 17.992 10.88 17.992 12.16 17.992C13.9947 17.992 15.424 17.992 16.448 17.992C17.5147 17.9493 18.3893 17.9067 19.072 17.864C19.7547 17.8213 20.4373 17.8 21.12 17.8C21.3333 17.8 21.4613 17.9067 21.504 18.12C21.5893 18.3333 21.632 18.568 21.632 18.824C21.632 19.1227 21.5893 19.4 21.504 19.656C21.4187 19.8693 21.2907 19.976 21.12 19.976H18.368C17.3013 19.976 16.5973 20.1893 16.256 20.616C15.9147 21.0427 15.744 21.8107 15.744 22.92V58.44ZM53.3215 29.96C53.4922 29.576 53.9188 29.384 54.6015 29.384C55.2415 29.384 55.6468 29.5973 55.8175 30.024C56.0308 30.9627 56.4362 32.264 57.0335 33.928C57.6735 35.592 58.4202 37.4693 59.2735 39.56C60.1268 41.608 61.0015 43.72 61.8975 45.896C62.8362 48.0293 63.7322 50.0773 64.5855 52.04C65.4815 53.96 66.2495 55.6027 66.8895 56.968C67.4015 58.0347 67.8708 58.7173 68.2975 59.016C68.7242 59.272 69.3855 59.4 70.2815 59.4C70.5375 59.4 70.6655 59.656 70.6655 60.168C70.6655 60.3813 70.6442 60.5947 70.6015 60.808C70.5588 61.0213 70.4735 61.128 70.3455 61.128C69.0228 61.128 67.9135 61.1067 67.0175 61.064C66.1215 61.0213 65.1828 61 64.2015 61C63.3908 61 62.4095 61.0213 61.2575 61.064C60.1055 61.1067 58.7828 61.128 57.2895 61.128C57.1188 61.128 57.0122 61.0427 56.9695 60.872C56.9268 60.6587 56.9055 60.4667 56.9055 60.296C56.9055 59.7413 57.0335 59.464 57.2895 59.464H60.3615C60.8308 59.464 61.0655 59.272 61.0655 58.888C61.0655 58.76 60.8948 58.2267 60.5535 57.288C60.2122 56.3493 59.7642 55.1547 59.2095 53.704C58.6975 52.2533 58.1215 50.696 57.4815 49.032H48.5855C47.6895 51.2507 46.9428 53.1707 46.3455 54.792C45.7482 56.4133 45.4495 57.5227 45.4495 58.12C45.4495 58.632 45.5348 58.9733 45.7055 59.144C45.8762 59.3147 46.0468 59.4 46.2175 59.4H48.8415C49.1828 59.4 49.3535 59.656 49.3535 60.168C49.3535 60.3813 49.3108 60.5947 49.2255 60.808C49.1828 61.0213 49.0975 61.128 48.9695 61.128C47.9028 61.128 47.0495 61.1067 46.4095 61.064C45.8122 61.064 45.2575 61.0427 44.7455 61C44.2762 61 43.7215 61 43.0815 61C42.3135 61 41.5455 61.0213 40.7775 61.064C40.0522 61.1067 39.1348 61.128 38.0255 61.128C37.8548 61.128 37.7268 61.0427 37.6415 60.872C37.5988 60.6587 37.5775 60.4667 37.5775 60.296C37.5775 59.7413 37.7268 59.464 38.0255 59.464H40.0735C40.5428 59.464 40.8842 59.272 41.0975 58.888C41.5242 58.2053 42.1215 57.0107 42.8895 55.304C43.7002 53.5547 44.5962 51.528 45.5775 49.224C46.5588 46.92 47.5402 44.552 48.5215 42.12C49.5455 39.688 50.4842 37.4053 51.3375 35.272C52.1908 33.096 52.8522 31.3253 53.3215 29.96ZM56.6495 46.856C56.0522 45.1067 55.4548 43.3787 54.8575 41.672C54.3028 39.9653 53.7908 38.4507 53.3215 37.128H53.1295C52.5748 38.7067 51.9775 40.3493 51.3375 42.056C50.6975 43.7627 50.0788 45.3627 49.4815 46.856H56.6495ZM98.077 31.752C97.6077 31.752 97.2663 31.944 97.053 32.328C96.6263 33.0533 96.0503 34.2053 95.325 35.784C94.6423 37.3627 93.8957 39.176 93.085 41.224C92.317 43.272 91.5277 45.384 90.717 47.56C89.9063 49.6933 89.1383 51.7627 88.413 53.768C87.6877 55.7307 87.069 57.4373 86.557 58.888C86.0877 60.3387 85.7677 61.3413 85.597 61.896C85.4263 62.28 84.9997 62.472 84.317 62.472C83.677 62.472 83.2717 62.2587 83.101 61.832C82.8877 60.8933 82.461 59.5707 81.821 57.864C81.181 56.1573 80.4343 54.2373 79.581 52.104C78.7277 49.9707 77.8317 47.7947 76.893 45.576C75.9543 43.3573 75.037 41.2667 74.141 39.304C73.2877 37.2987 72.541 35.6133 71.901 34.248C71.389 33.1813 70.9197 32.52 70.493 32.264C70.0663 31.9653 69.405 31.816 68.509 31.816C68.253 31.816 68.125 31.56 68.125 31.048C68.125 30.8347 68.1463 30.6213 68.189 30.408C68.2743 30.1947 68.381 30.088 68.509 30.088C69.7037 30.088 70.7277 30.1093 71.581 30.152C72.4343 30.1947 73.437 30.216 74.589 30.216C75.3997 30.216 76.381 30.1947 77.533 30.152C78.7277 30.1093 80.0503 30.088 81.501 30.088C81.6717 30.088 81.7783 30.1733 81.821 30.344C81.8637 30.5147 81.885 30.7067 81.885 30.92C81.885 31.4747 81.757 31.752 81.501 31.752H78.429C77.9597 31.752 77.725 31.944 77.725 32.328C77.725 32.4987 77.917 33.16 78.301 34.312C78.7277 35.4213 79.261 36.8507 79.901 38.6C80.541 40.3067 81.2237 42.1627 81.949 44.168C82.6743 46.1733 83.3783 48.136 84.061 50.056C84.7437 51.9333 85.3197 53.576 85.789 54.984C86.7703 51.656 87.7943 48.4773 88.861 45.448C89.9277 42.4187 90.8237 39.816 91.549 37.64C92.317 35.4213 92.701 33.9067 92.701 33.096C92.701 32.584 92.6157 32.2427 92.445 32.072C92.317 31.9013 92.1463 31.816 91.933 31.816H89.309C88.9677 31.816 88.797 31.56 88.797 31.048C88.797 30.8347 88.8183 30.6213 88.861 30.408C88.9463 30.1947 89.053 30.088 89.181 30.088C90.2477 30.088 91.0797 30.1093 91.677 30.152C92.317 30.152 92.8717 30.1733 93.341 30.216C93.853 30.216 94.429 30.216 95.069 30.216C95.837 30.216 96.541 30.1947 97.181 30.152C97.821 30.1093 98.6743 30.088 99.741 30.088C99.9117 30.088 100.018 30.1733 100.061 30.344C100.146 30.5147 100.189 30.7067 100.189 30.92C100.189 31.4747 100.04 31.752 99.741 31.752H98.077ZM113.384 29.96C113.555 29.576 113.981 29.384 114.664 29.384C115.304 29.384 115.709 29.5973 115.88 30.024C116.093 30.9627 116.499 32.264 117.096 33.928C117.736 35.592 118.483 37.4693 119.336 39.56C120.189 41.608 121.064 43.72 121.96 45.896C122.899 48.0293 123.795 50.0773 124.648 52.04C125.544 53.96 126.312 55.6027 126.952 56.968C127.464 58.0347 127.933 58.7173 128.36 59.016C128.787 59.272 129.448 59.4 130.344 59.4C130.6 59.4 130.728 59.656 130.728 60.168C130.728 60.3813 130.707 60.5947 130.664 60.808C130.621 61.0213 130.536 61.128 130.408 61.128C129.085 61.128 127.976 61.1067 127.08 61.064C126.184 61.0213 125.245 61 124.264 61C123.453 61 122.472 61.0213 121.32 61.064C120.168 61.1067 118.845 61.128 117.352 61.128C117.181 61.128 117.075 61.0427 117.032 60.872C116.989 60.6587 116.968 60.4667 116.968 60.296C116.968 59.7413 117.096 59.464 117.352 59.464H120.424C120.893 59.464 121.128 59.272 121.128 58.888C121.128 58.76 120.957 58.2267 120.616 57.288C120.275 56.3493 119.827 55.1547 119.272 53.704C118.76 52.2533 118.184 50.696 117.544 49.032H108.648C107.752 51.2507 107.005 53.1707 106.408 54.792C105.811 56.4133 105.512 57.5227 105.512 58.12C105.512 58.632 105.597 58.9733 105.768 59.144C105.939 59.3147 106.109 59.4 106.28 59.4H108.904C109.245 59.4 109.416 59.656 109.416 60.168C109.416 60.3813 109.373 60.5947 109.288 60.808C109.245 61.0213 109.16 61.128 109.032 61.128C107.965 61.128 107.112 61.1067 106.472 61.064C105.875 61.064 105.32 61.0427 104.808 61C104.339 61 103.784 61 103.144 61C102.376 61 101.608 61.0213 100.84 61.064C100.115 61.1067 99.1973 61.128 98.088 61.128C97.9173 61.128 97.7893 61.0427 97.704 60.872C97.6613 60.6587 97.64 60.4667 97.64 60.296C97.64 59.7413 97.7893 59.464 98.088 59.464H100.136C100.605 59.464 100.947 59.272 101.16 58.888C101.587 58.2053 102.184 57.0107 102.952 55.304C103.763 53.5547 104.659 51.528 105.64 49.224C106.621 46.92 107.603 44.552 108.584 42.12C109.608 39.688 110.547 37.4053 111.4 35.272C112.253 33.096 112.915 31.3253 113.384 29.96ZM116.712 46.856C116.115 45.1067 115.517 43.3787 114.92 41.672C114.365 39.9653 113.853 38.4507 113.384 37.128H113.192C112.637 38.7067 112.04 40.3493 111.4 42.056C110.76 43.7627 110.141 45.3627 109.544 46.856H116.712ZM173.226 61.768C173.055 62.152 172.607 62.344 171.882 62.344C171.199 62.344 170.751 62.152 170.538 61.768C169.855 60.1893 168.618 57.096 166.826 52.488C165.034 47.8373 162.751 41.672 159.978 33.992C158.613 37.5333 157.247 41.0747 155.882 44.616C154.559 48.1573 153.322 51.4213 152.17 54.408C151.018 57.3947 150.015 59.848 149.162 61.768C149.077 61.9387 148.885 62.0667 148.586 62.152C148.33 62.28 148.031 62.344 147.69 62.344C147.007 62.344 146.559 62.152 146.346 61.768C145.535 59.8053 143.807 55.496 141.162 48.84C138.517 42.1413 135.167 33.1173 131.114 21.768C130.901 21.0853 130.602 20.616 130.218 20.36C129.877 20.104 129.557 19.976 129.258 19.976H126.954C126.698 19.976 126.57 19.6773 126.57 19.08C126.57 18.824 126.591 18.568 126.634 18.312C126.719 18.056 126.826 17.928 126.954 17.928C127.551 17.928 128.298 17.9493 129.194 17.992C130.133 17.992 131.05 18.0133 131.946 18.056C132.842 18.056 133.525 18.056 133.994 18.056C134.378 18.056 134.997 18.056 135.85 18.056C136.703 18.0133 137.621 17.992 138.602 17.992C139.626 17.992 140.586 17.992 141.482 17.992C142.421 17.9493 143.146 17.928 143.658 17.928C143.871 17.928 144.021 18.0773 144.106 18.376C144.234 18.632 144.298 18.888 144.298 19.144C144.298 19.656 144.085 19.912 143.658 19.912H139.946C139.178 19.912 138.73 20.1467 138.602 20.616C138.474 21.0427 138.517 21.6827 138.73 22.536C139.071 23.816 139.541 25.4587 140.138 27.464C140.778 29.4693 141.482 31.6667 142.25 34.056C143.061 36.4453 143.871 38.8773 144.682 41.352C145.535 43.8267 146.346 46.216 147.114 48.52C147.882 50.824 148.543 52.8507 149.098 54.6H149.354C151.359 49.096 153.109 44.1467 154.602 39.752C156.095 35.3573 157.269 31.7733 158.122 29C157.695 27.848 157.269 26.6747 156.842 25.48C156.458 24.2853 156.031 23.048 155.562 21.768C155.349 21.0853 155.05 20.616 154.666 20.36C154.325 20.104 154.005 19.976 153.706 19.976H151.402C151.146 19.976 151.018 19.6773 151.018 19.08C151.018 18.824 151.039 18.568 151.082 18.312C151.167 18.056 151.274 17.928 151.402 17.928C151.999 17.928 152.746 17.9493 153.642 17.992C154.581 17.992 155.498 18.0133 156.394 18.056C157.29 18.056 157.973 18.056 158.442 18.056C158.826 18.056 159.445 18.056 160.298 18.056C161.151 18.0133 162.069 17.992 163.05 17.992C164.074 17.992 165.034 17.992 165.93 17.992C166.869 17.9493 167.594 17.928 168.106 17.928C168.319 17.928 168.469 18.0773 168.554 18.376C168.682 18.632 168.746 18.888 168.746 19.144C168.746 19.656 168.533 19.912 168.106 19.912H164.394C163.626 19.912 163.178 20.1467 163.05 20.616C162.922 21.0427 162.965 21.6827 163.178 22.536C163.519 23.816 163.989 25.4587 164.586 27.464C165.183 29.4693 165.866 31.6667 166.634 34.056C167.402 36.4453 168.17 38.8773 168.938 41.352C169.749 43.8267 170.538 46.216 171.306 48.52C172.074 50.824 172.735 52.8507 173.29 54.6H173.546C175.551 49.0533 177.279 44.0827 178.73 39.688C180.223 35.2933 181.397 31.688 182.25 28.872C183.146 26.056 183.679 24.2427 183.85 23.432C183.935 22.9627 183.999 22.5573 184.042 22.216C184.127 21.8747 184.17 21.576 184.17 21.32C184.17 20.424 183.978 19.976 183.594 19.976H179.37C179.029 19.976 178.858 19.6987 178.858 19.144C178.858 18.888 178.901 18.632 178.986 18.376C179.071 18.0773 179.199 17.928 179.37 17.928C180.479 17.928 181.823 17.9493 183.402 17.992C184.981 18.0347 186.367 18.056 187.562 18.056C188.117 18.056 188.863 18.056 189.802 18.056C190.783 18.0133 191.743 17.992 192.682 17.992C193.621 17.9493 194.303 17.928 194.73 17.928C194.901 17.928 195.029 18.056 195.114 18.312C195.199 18.568 195.242 18.824 195.242 19.08C195.242 19.6347 195.071 19.912 194.73 19.912H191.658C191.061 19.912 190.591 20.1253 190.25 20.552C189.909 20.936 189.61 21.4267 189.354 22.024C187.989 25.2667 186.538 28.7867 185.002 32.584C183.509 36.3387 182.037 40.072 180.586 43.784C179.135 47.496 177.77 50.9307 176.49 54.088C175.21 57.2027 174.122 59.7627 173.226 61.768ZM206.322 29.96C206.492 29.576 206.919 29.384 207.602 29.384C208.242 29.384 208.647 29.5973 208.818 30.024C209.031 30.9627 209.436 32.264 210.034 33.928C210.674 35.592 211.42 37.4693 212.274 39.56C213.127 41.608 214.002 43.72 214.898 45.896C215.836 48.0293 216.732 50.0773 217.586 52.04C218.482 53.96 219.25 55.6027 219.89 56.968C220.402 58.0347 220.871 58.7173 221.298 59.016C221.724 59.272 222.386 59.4 223.282 59.4C223.538 59.4 223.666 59.656 223.666 60.168C223.666 60.3813 223.644 60.5947 223.602 60.808C223.559 61.0213 223.474 61.128 223.346 61.128C222.023 61.128 220.914 61.1067 220.018 61.064C219.122 61.0213 218.183 61 217.202 61C216.391 61 215.41 61.0213 214.258 61.064C213.106 61.1067 211.783 61.128 210.29 61.128C210.119 61.128 210.012 61.0427 209.97 60.872C209.927 60.6587 209.906 60.4667 209.906 60.296C209.906 59.7413 210.034 59.464 210.29 59.464H213.362C213.831 59.464 214.066 59.272 214.066 58.888C214.066 58.76 213.895 58.2267 213.554 57.288C213.212 56.3493 212.764 55.1547 212.21 53.704C211.698 52.2533 211.122 50.696 210.482 49.032H201.586C200.69 51.2507 199.943 53.1707 199.345 54.792C198.748 56.4133 198.45 57.5227 198.45 58.12C198.45 58.632 198.535 58.9733 198.706 59.144C198.876 59.3147 199.047 59.4 199.218 59.4H201.842C202.183 59.4 202.354 59.656 202.354 60.168C202.354 60.3813 202.311 60.5947 202.226 60.808C202.183 61.0213 202.098 61.128 201.97 61.128C200.903 61.128 200.05 61.1067 199.41 61.064C198.812 61.064 198.258 61.0427 197.746 61C197.276 61 196.722 61 196.082 61C195.314 61 194.546 61.0213 193.778 61.064C193.052 61.1067 192.135 61.128 191.026 61.128C190.855 61.128 190.727 61.0427 190.642 60.872C190.599 60.6587 190.578 60.4667 190.578 60.296C190.578 59.7413 190.727 59.464 191.026 59.464H193.074C193.543 59.464 193.884 59.272 194.098 58.888C194.524 58.2053 195.122 57.0107 195.89 55.304C196.7 53.5547 197.596 51.528 198.578 49.224C199.559 46.92 200.54 44.552 201.522 42.12C202.546 39.688 203.484 37.4053 204.338 35.272C205.191 33.096 205.852 31.3253 206.322 29.96ZM209.65 46.856C209.052 45.1067 208.455 43.3787 207.858 41.672C207.303 39.9653 206.791 38.4507 206.322 37.128H206.13C205.575 38.7067 204.978 40.3493 204.338 42.056C203.698 43.7627 203.079 45.3627 202.482 46.856H209.65ZM251.077 31.752C250.608 31.752 250.266 31.944 250.053 32.328C249.626 33.0533 249.05 34.2053 248.325 35.784C247.642 37.3627 246.896 39.176 246.085 41.224C245.317 43.272 244.528 45.384 243.717 47.56C242.906 49.6933 242.138 51.7627 241.413 53.768C240.688 55.7307 240.069 57.4373 239.557 58.888C239.088 60.3387 238.768 61.3413 238.597 61.896C238.426 62.28 238 62.472 237.317 62.472C236.677 62.472 236.272 62.2587 236.101 61.832C235.888 60.8933 235.461 59.5707 234.821 57.864C234.181 56.1573 233.434 54.2373 232.581 52.104C231.728 49.9707 230.832 47.7947 229.893 45.576C228.954 43.3573 228.037 41.2667 227.141 39.304C226.288 37.2987 225.541 35.6133 224.901 34.248C224.389 33.1813 223.92 32.52 223.493 32.264C223.066 31.9653 222.405 31.816 221.509 31.816C221.253 31.816 221.125 31.56 221.125 31.048C221.125 30.8347 221.146 30.6213 221.189 30.408C221.274 30.1947 221.381 30.088 221.509 30.088C222.704 30.088 223.728 30.1093 224.581 30.152C225.434 30.1947 226.437 30.216 227.589 30.216C228.4 30.216 229.381 30.1947 230.533 30.152C231.728 30.1093 233.05 30.088 234.501 30.088C234.672 30.088 234.778 30.1733 234.821 30.344C234.864 30.5147 234.885 30.7067 234.885 30.92C234.885 31.4747 234.757 31.752 234.501 31.752H231.429C230.96 31.752 230.725 31.944 230.725 32.328C230.725 32.4987 230.917 33.16 231.301 34.312C231.728 35.4213 232.261 36.8507 232.901 38.6C233.541 40.3067 234.224 42.1627 234.949 44.168C235.674 46.1733 236.378 48.136 237.061 50.056C237.744 51.9333 238.32 53.576 238.789 54.984C239.77 51.656 240.794 48.4773 241.861 45.448C242.928 42.4187 243.824 39.816 244.549 37.64C245.317 35.4213 245.701 33.9067 245.701 33.096C245.701 32.584 245.616 32.2427 245.445 32.072C245.317 31.9013 245.146 31.816 244.933 31.816H242.309C241.968 31.816 241.797 31.56 241.797 31.048C241.797 30.8347 241.818 30.6213 241.861 30.408C241.946 30.1947 242.053 30.088 242.181 30.088C243.248 30.088 244.08 30.1093 244.677 30.152C245.317 30.152 245.872 30.1733 246.341 30.216C246.853 30.216 247.429 30.216 248.069 30.216C248.837 30.216 249.541 30.1947 250.181 30.152C250.821 30.1093 251.674 30.088 252.741 30.088C252.912 30.088 253.018 30.1733 253.061 30.344C253.146 30.5147 253.189 30.7067 253.189 30.92C253.189 31.4747 253.04 31.752 252.741 31.752H251.077ZM265.412 44.744C266.777 44.7013 268.078 44.6373 269.316 44.552C270.596 44.4667 271.662 44.3813 272.516 44.296C273.369 44.168 273.838 44.0827 273.924 44.04L274.372 41.352C274.457 41.1387 274.756 41.032 275.268 41.032C275.396 41.032 275.566 41.0747 275.78 41.16C275.993 41.2027 276.1 41.3093 276.1 41.48C276.014 42.1627 275.95 42.824 275.908 43.464C275.865 44.0613 275.844 44.7227 275.844 45.448C275.844 46.088 275.865 46.792 275.908 47.56C275.95 48.2853 276.014 49.0107 276.1 49.736C276.1 49.864 275.972 49.9707 275.716 50.056C275.502 50.0987 275.289 50.12 275.076 50.12C274.905 50.12 274.734 50.0987 274.564 50.056C274.436 50.0133 274.372 49.9493 274.372 49.864L273.86 47.112C273.774 47.0267 273.305 46.9413 272.452 46.856C271.641 46.7707 270.617 46.6853 269.38 46.6C268.142 46.5147 266.82 46.4507 265.412 46.408V54.152C265.412 55.944 265.54 57.2027 265.796 57.928C266.052 58.6107 266.35 58.952 266.692 58.952H268.74C270.745 58.9093 272.644 58.7173 274.436 58.376C276.27 58.0347 277.614 57.5653 278.468 56.968L278.788 54.472C278.83 54.344 278.958 54.2587 279.172 54.216C279.428 54.1307 279.641 54.088 279.812 54.088C280.025 54.088 280.217 54.1093 280.388 54.152C280.558 54.1947 280.622 54.3013 280.58 54.472C280.409 55.5813 280.302 56.84 280.26 58.248C280.217 59.6133 280.196 60.872 280.196 62.024C280.196 62.152 280.089 62.2373 279.876 62.28C279.705 62.3227 279.556 62.344 279.428 62.344C279.257 62.344 279.044 62.3227 278.788 62.28C278.574 62.2373 278.468 62.152 278.468 62.024V61H267.076C264.473 61 262.468 61 261.06 61C259.652 61.0427 258.606 61.064 257.924 61.064C257.241 61.1067 256.665 61.128 256.196 61.128C256.025 61.128 255.897 61 255.812 60.744C255.769 60.488 255.748 60.2747 255.748 60.104C255.748 59.8907 255.769 59.6987 255.812 59.528C255.897 59.3147 256.004 59.208 256.132 59.208H259.012C259.481 59.208 259.758 59.1013 259.844 58.888C259.929 58.6747 259.972 58.1627 259.972 57.352V37.192C259.972 35.4 259.844 34.0987 259.588 33.288C259.374 32.4773 259.076 32.072 258.692 32.072H256.388C255.876 32.072 255.62 31.752 255.62 31.112C255.62 30.4293 255.854 30.088 256.324 30.088C257.134 30.088 258.116 30.1093 259.268 30.152C260.462 30.1947 261.657 30.216 262.852 30.216H276.1V29.192C276.1 29.064 276.185 28.9787 276.356 28.936C276.526 28.8507 276.697 28.808 276.868 28.808C277.038 28.808 277.23 28.8507 277.444 28.936C277.7 28.9787 277.828 29.064 277.828 29.192C277.828 30.344 277.849 31.6027 277.892 32.968C277.977 34.3333 278.105 35.4853 278.276 36.424C278.318 36.552 278.254 36.6587 278.084 36.744C277.913 36.7867 277.742 36.808 277.572 36.808C277.401 36.808 277.166 36.7867 276.868 36.744C276.612 36.6587 276.484 36.552 276.484 36.424C276.313 35.8267 276.1 35.1867 275.844 34.504C275.63 33.8213 275.268 33.352 274.756 33.096C273.945 32.7973 272.942 32.5627 271.748 32.392C270.553 32.2213 268.953 32.136 266.948 32.136C266.35 32.1787 265.945 32.3707 265.732 32.712C265.518 33.0107 265.412 33.5227 265.412 34.248V44.744Z" fill="#00E494"/>
</svg>
